<?xml version="1.0" encoding="utf-8"?>
<!-- Generator: Adobe Illustrator 24.1.2, SVG Export Plug-In . SVG Version: 6.00 Build 0)  -->
<svg version="1.1" id="Layer_1" xmlns="http://www.w3.org/2000/svg" xmlns:xlink="http://www.w3.org/1999/xlink" x="0px" y="0px"
	 viewBox="0 0 1280 219.3" style="enable-background:new 0 0 1280 219.3;" xml:space="preserve">
<style type="text/css">
	.st0{fill:#000800;}
</style>
<g>
	<polygon class="st0" points="1010.1,66.9 985,66.9 928.6,119.5 928.6,13.2 910.5,13.2 910.5,183.7 928.6,183.7 928.6,142.9 
		951.9,121.2 990.8,183.7 1012.8,183.7 965.6,108.4 	"/>
	<path class="st0" d="M134.9,122h49.4c0,12.5-3.3,50.5-49.6,50.5c-32.6,0-53.1-28.2-53.1-61.7c0-57.3,37.1-65.6,53.1-65.6
		c37.1,0,44.3,26.9,45.3,31.1l19.9-3.2c-0.7-2.7-7.9-45.2-65.2-45.2c-26.6,0-73.7,16.8-73.7,84c0,32,20.1,77.8,73.7,77.8
		c28.8,0,44.5-15.9,49.6-22.7l5.4,19.3h13v-81.5h-67.8L134.9,122L134.9,122z"/>
	<path class="st0" d="M402.6,64.8c-28.9,0-45.7,18.7-59,39.7c-13.3-21-30.1-39.7-59-39.7c-35.8,0-54.5,30.5-54.5,60.7
		c0,30.1,18.7,60.7,54.5,60.7c28.7,0,45.6-19.4,59-40.8c13.4,21.4,30.3,40.8,59,40.8c35.8,0,54.5-30.5,54.5-60.7
		C457.1,95.4,438.4,64.8,402.6,64.8z M285,169.6c-10.3,0-19.8-4.3-26.2-12.7c-6.1-8-7.9-19.5-7.9-31.4c0-21.2,10.7-44.1,34.1-44.1
		c22.6,0,38.8,20.6,51.4,43.6C323.4,148.4,307.2,169.6,285,169.6z M428.4,156.9c-6.4,8.4-15.9,12.7-26.2,12.7
		c-22.2,0-38.5-21.2-51.4-44.6c12.6-23,28.8-43.6,51.4-43.6c23.5,0,34.1,22.9,34.1,44.1C436.4,137.4,434.6,148.9,428.4,156.9z"/>
	<path class="st0" d="M619.3,64.8c-26.9,0-38.1,17.6-40.6,22.9c-3.9-7.8-12.9-22.9-40.2-22.9c-22.2,0-33.1,13.4-37.4,20.5l-2.2-18.2
		h-15.3v116.8h18.7v-62.3c0-38.6,28.8-40.4,34.6-40.4c7.8,0,27.6,3.7,27.6,29.9V184h18.7v-64c0-33.9,24.4-38.8,34.6-38.8
		c16.6,0,27.6,8.9,27.6,29.9V184h18.7v-74.7C663.9,83.5,648.2,64.8,619.3,64.8z"/>
	<path class="st0" d="M846.8,86.3l-2.4-19.2H829v116.8h18.7v-63.1c0-34.6,24.7-38.5,31.8-38.5c5.9,0,10.1,0.8,10.8,1l0.7-18
		c-0.1,0-0.1,0-0.1,0C876.6,63.4,855.8,65.3,846.8,86.3z"/>
	<path class="st0" d="M1079.9,64.8c-40.1,0-55.8,31.2-55.8,60.7s15.9,60.7,57,60.7c33.8,0,45.2-20.6,48.1-25.9l-14.7-8.6
		c-3.3,5.6-11.7,18.2-33.9,18.2c-15.9,0-35.2-7.5-37.8-39h88.3C1135.4,100.4,1119.3,64.8,1079.9,64.8z M1043.3,114.3
		c0.7-4.6,5.2-33.2,36.2-33.2c26.5,0,32.4,20.1,33.3,33.2H1043.3z"/>
	<path class="st0" d="M1227.1,168c-23.6,5.8-41.3,5.4-40.7-15.4V83.3h42.5V67.2h-42.5V34l-18.7,5.1v28h-23.4v16.1h23.4v71.7
		c0,38.8,37.8,37,63.3,28.9L1227.1,168z"/>
	<path class="st0" d="M788.4,161.3v-56.5c0-31.8-24.4-39.9-43-39.9c-22.3,0-44.5,14.7-49.6,30.2l16.3,6.8
		c6.6-14.3,17.9-20.6,30.9-20.6c20.4,0,26.9,13.9,26.9,27.3v4.5l-42.5,8.4c-30.2,7.1-33.1,23.2-33.1,33.2
		c0,19.8,15.7,31.8,38.5,31.8c25.5,0,35.8-15.1,37.4-17.5c5.1,22.7,32.1,16.6,35,14.4l-0.5-13.7
		C799.8,170.6,788.4,171.7,788.4,161.3z M769.7,140.7c0,5,0,21.4-21.6,27.4c-18.8,5.3-34.9-0.5-34.9-14.6c0-13.7,15-16.7,22.7-18.2
		l33.9-6.9v12.3H769.7z"/>
</g>
</svg>
